<svg xmlns="http://www.w3.org/2000/svg" xmlns:xlink="http://www.w3.org/1999/xlink" width="500" zoomAndPan="magnify" viewBox="0 0 375 374.999991" height="500" preserveAspectRatio="xMidYMid meet" version="1.0"><defs><clipPath id="93194ee883"><path d="M 10.515625 10.515625 L 364.484375 10.515625 L 364.484375 364.484375 L 10.515625 364.484375 Z M 10.515625 10.515625 " clip-rule="nonzero"/></clipPath><clipPath id="620aacc82b"><path d="M 187.5 10.515625 C 89.753906 10.515625 10.515625 89.753906 10.515625 187.5 C 10.515625 285.246094 89.753906 364.484375 187.5 364.484375 C 285.246094 364.484375 364.484375 285.246094 364.484375 187.5 C 364.484375 89.753906 285.246094 10.515625 187.5 10.515625 Z M 187.5 10.515625 " clip-rule="nonzero"/></clipPath><clipPath id="8d119dc3b5"><path d="M 79.785156 301 L 106 301 L 106 317 L 79.785156 317 Z M 79.785156 301 " clip-rule="nonzero"/></clipPath><clipPath id="b41f7a462a"><path d="M 129 82.664062 L 208 82.664062 L 208 226 L 129 226 Z M 129 82.664062 " clip-rule="nonzero"/></clipPath><clipPath id="cf08bba9eb"><path d="M 93 82.664062 L 292 82.664062 L 292 329.414062 L 93 329.414062 Z M 93 82.664062 " clip-rule="nonzero"/></clipPath><clipPath id="7c2cc2e097"><path d="M 115.585938 44 L 259.585938 44 L 259.585938 93.707031 L 115.585938 93.707031 Z M 115.585938 44 " clip-rule="nonzero"/></clipPath><clipPath id="896ec00e3a"><path d="M 177 18.707031 L 198 18.707031 L 198 62 L 177 62 Z M 177 18.707031 " clip-rule="nonzero"/></clipPath></defs><g clip-path="url(#93194ee883)"><g clip-path="url(#620aacc82b)"><path fill="#ebe2c8" d="M 10.515625 10.515625 L 364.484375 10.515625 L 364.484375 364.484375 L 10.515625 364.484375 Z M 10.515625 10.515625 " fill-opacity="1" fill-rule="nonzero"/></g></g><path fill="#bd9479" d="M 110.40625 291.855469 C 110.40625 285.265625 112.6875 276.027344 117.386719 263.628906 L 130.773438 229.785156 C 129.765625 229.941406 128.753906 230.152344 127.78125 230.394531 L 106.648438 283.679688 C 104.714844 288.542969 102.574219 292.832031 100.222656 296.566406 C 100.449219 297.210938 100.695312 297.855469 100.957031 298.484375 C 103.445312 304.53125 107.03125 309.605469 111.730469 313.667969 C 112.390625 314.246094 113.070312 314.800781 113.785156 315.324219 C 122.609375 315.449219 131.433594 315.710938 140.140625 316.128906 L 140.140625 314.105469 C 130.738281 313.6875 123.742188 311.941406 118.816406 308.804688 C 113.246094 305.300781 110.40625 299.582031 110.40625 291.855469 Z M 110.40625 291.855469 " fill-opacity="1" fill-rule="nonzero"/><path fill="#bd9479" d="M 271.566406 291.386719 L 234.609375 198.261719 C 234.46875 199.429688 234.347656 200.582031 234.207031 201.714844 C 233.53125 207.433594 232.851562 212.699219 232.171875 217.425781 C 230.691406 227.710938 229.019531 237.476562 227.210938 246.59375 C 227.003906 247.605469 226.8125 248.632812 226.601562 249.628906 L 239.308594 283.015625 C 242.164062 289.992188 243.554688 295.414062 243.554688 299.546875 C 243.554688 304.898438 241.136719 308.804688 236.542969 310.84375 C 232.816406 312.5 227.160156 313.566406 219.289062 314.085938 L 219.289062 316.128906 C 228.882812 315.570312 242.789062 315.273438 260.738281 315.273438 C 274.644531 315.273438 286.152344 315.550781 294.996094 316.109375 L 294.996094 314.019531 C 284.847656 312.675781 276.980469 305.074219 271.566406 291.386719 Z M 271.566406 291.386719 " fill-opacity="1" fill-rule="nonzero"/><path fill="#bd9479" d="M 223.660156 170.660156 L 210.117188 136.539062 C 209.59375 136.75 209.089844 136.957031 208.585938 137.148438 C 200.839844 140.269531 194.242188 143.53125 188.863281 146.898438 C 188.390625 147.191406 187.90625 147.488281 187.433594 147.785156 L 215.773438 221.730469 C 215.964844 220.667969 216.140625 219.605469 216.3125 218.539062 C 216.871094 215.085938 217.375 211.707031 217.8125 208.359375 C 219.585938 195.648438 221.34375 184.121094 223.121094 173.78125 C 223.292969 172.71875 223.46875 171.671875 223.660156 170.660156 Z M 223.660156 170.660156 " fill-opacity="1" fill-rule="nonzero"/><g clip-path="url(#8d119dc3b5)"><path fill="#bd9479" d="M 99.300781 306.625 C 98.640625 305.527344 98.03125 304.429688 97.457031 303.296875 C 97.179688 302.753906 96.933594 302.195312 96.671875 301.636719 C 91.800781 307.742188 86.160156 311.769531 79.824219 313.667969 L 79.824219 316.058594 C 86.261719 315.535156 94.097656 315.273438 103.148438 315.273438 C 104.070312 315.273438 104.976562 315.289062 105.898438 315.289062 C 105.394531 314.75 104.90625 314.191406 104.417969 313.632812 C 102.539062 311.488281 100.832031 309.171875 99.300781 306.625 Z M 99.300781 306.625 " fill-opacity="1" fill-rule="nonzero"/></g><g clip-path="url(#b41f7a462a)"><path fill="#bd9479" d="M 132.914062 224.675781 L 175.285156 116.054688 L 184.945312 141.265625 C 185.433594 140.96875 185.902344 140.691406 186.390625 140.410156 C 186.6875 140.234375 186.984375 140.042969 187.277344 139.886719 C 191.351562 137.550781 196.589844 135.109375 202.859375 132.632812 C 203.988281 132.214844 205.136719 131.78125 206.304688 131.363281 C 206.808594 131.167969 207.347656 130.996094 207.855469 130.804688 L 188.757812 82.664062 L 186.425781 82.664062 L 129.886719 225.199219 C 131.242188 224.957031 132.621094 224.78125 134.011719 224.675781 Z M 132.914062 224.675781 " fill-opacity="1" fill-rule="nonzero"/></g><path fill="#bd9479" d="M 151.347656 226.734375 L 214.886719 226.734375 C 215.007812 226.054688 215.148438 225.355469 215.269531 224.675781 L 140.382812 224.675781 C 144.386719 224.921875 148.023438 225.617188 151.347656 226.734375 Z M 151.347656 226.734375 " fill-opacity="1" fill-rule="nonzero"/><g clip-path="url(#cf08bba9eb)"><path fill="#765c4a" d="M 283.925781 82.679688 C 282.53125 82.679688 281.539062 83.152344 280.824219 84.144531 C 282.269531 84.546875 283.558594 85.382812 284.636719 86.65625 C 286.171875 88.453125 286.9375 90.769531 286.9375 93.597656 C 286.9375 99.820312 283.417969 104.945312 276.472656 108.835938 C 269.910156 112.53125 260.058594 116.332031 247.160156 120.152344 C 246.65625 120.289062 246.132812 120.152344 245.765625 119.785156 C 245.417969 119.417969 245.296875 118.878906 245.453125 118.390625 C 250.222656 104.597656 257.484375 97.101562 267.023438 96.070312 C 266.882812 95.914062 266.742188 95.773438 266.585938 95.652344 C 266.03125 95.199219 265.421875 94.972656 264.722656 94.972656 C 252.574219 94.972656 243.050781 104.335938 236.4375 122.816406 C 236.28125 123.238281 235.949219 123.550781 235.515625 123.671875 C 226.203125 126.375 217.65625 129.09375 209.960938 131.796875 C 209.4375 131.988281 208.914062 132.164062 208.410156 132.355469 C 207.890625 132.546875 207.367188 132.722656 206.863281 132.914062 C 205.695312 133.332031 204.546875 133.769531 203.414062 134.1875 C 197.234375 136.628906 192.066406 139.050781 188.0625 141.335938 C 187.695312 141.542969 187.332031 141.789062 186.949219 141.996094 C 186.476562 142.277344 185.992188 142.554688 185.503906 142.851562 C 185.03125 143.148438 184.5625 143.445312 184.074219 143.742188 C 181.203125 145.570312 178.226562 147.648438 175.144531 150 C 170.671875 153.398438 167.085938 157.027344 164.476562 160.777344 C 161.863281 164.523438 159.636719 169.023438 157.859375 174.148438 C 156.085938 179.238281 155.195312 185.550781 155.195312 192.910156 C 155.195312 200.109375 157.425781 206.734375 161.828125 212.59375 C 166.199219 218.433594 171.613281 221.261719 178.367188 221.261719 C 179.792969 221.261719 180.925781 220.875 181.847656 220.058594 C 182.210938 219.726562 182.507812 219.410156 182.699219 219.097656 C 177.199219 218.59375 172.570312 215.785156 168.914062 210.710938 C 164.960938 205.238281 162.960938 198.453125 162.960938 190.589844 C 162.960938 182.8125 164.40625 175.648438 167.242188 169.285156 C 170.0625 162.953125 173.542969 157.621094 177.582031 153.417969 C 179.742188 151.289062 182.351562 149.199219 185.363281 147.140625 C 185.832031 146.828125 186.285156 146.511719 186.773438 146.199219 C 187.226562 145.902344 187.714844 145.605469 188.199219 145.308594 C 193.613281 141.945312 200.195312 138.71875 207.90625 135.597656 C 208.410156 135.390625 208.914062 135.179688 209.4375 134.988281 C 209.941406 134.796875 210.464844 134.585938 210.96875 134.394531 C 217.496094 131.882812 224.738281 129.476562 232.746094 127.160156 C 233.234375 127.019531 233.757812 127.160156 234.105469 127.507812 C 234.453125 127.875 234.589844 128.398438 234.453125 128.886719 C 231.441406 138.910156 228.378906 152.84375 225.277344 170.488281 C 225.105469 171.515625 224.914062 172.5625 224.738281 173.609375 C 224.566406 174.636719 224.390625 175.683594 224.199219 176.730469 C 222.597656 186.355469 220.980469 196.972656 219.359375 208.585938 C 218.804688 212.820312 218.140625 217.164062 217.394531 221.574219 C 217.097656 223.28125 216.785156 225.007812 216.46875 226.753906 C 216.367188 227.308594 216.261719 227.851562 216.15625 228.410156 C 214.746094 235.835938 213.058594 243.457031 211.109375 251.195312 C 207.382812 266.050781 202.996094 278.917969 198.089844 289.417969 C 193.128906 300.035156 186.023438 308.945312 176.972656 315.9375 C 167.851562 322.960938 157.753906 326.535156 146.980469 326.535156 C 136.292969 326.535156 127.328125 324.792969 120.292969 321.339844 C 117.699219 320.085938 115.296875 318.636719 113.089844 317 C 112.355469 316.457031 111.660156 315.902344 110.964844 315.324219 C 110.335938 314.785156 109.710938 314.246094 109.117188 313.667969 C 105.167969 309.902344 102.035156 305.371094 99.753906 300.121094 C 99.492188 299.527344 99.230469 298.917969 99.003906 298.308594 C 98.761719 297.679688 98.535156 297.035156 98.308594 296.390625 C 97.367188 293.636719 96.636719 290.707031 96.097656 287.601562 C 95.367188 284.046875 94.984375 280.417969 94.984375 276.828125 C 94.984375 266.523438 97.785156 256.6875 103.289062 247.570312 C 109.277344 237.789062 117.058594 231.582031 126.457031 228.984375 C 127.101562 228.808594 127.761719 228.652344 128.425781 228.511719 C 129.398438 228.304688 130.375 228.128906 131.382812 227.988281 C 133.246094 227.730469 135.144531 227.589844 137.109375 227.589844 C 139.6875 227.589844 142.070312 227.851562 144.300781 228.339844 C 152.792969 230.238281 158.695312 235.714844 161.863281 244.746094 C 163.222656 248.84375 163.917969 253.339844 163.917969 258.152344 C 163.917969 263 162.769531 268.195312 160.523438 273.601562 C 157.304688 281.414062 152.933594 285.894531 147.539062 286.941406 C 148.582031 288.054688 149.78125 288.597656 151.15625 288.597656 C 159.496094 288.597656 165.378906 283.574219 169.140625 273.253906 C 170.6875 268.617188 171.472656 263.785156 171.472656 258.902344 C 171.472656 254.074219 170.339844 249.050781 168.078125 243.996094 C 164.441406 236.253906 158.679688 231.042969 150.914062 228.320312 C 148.789062 227.589844 146.511719 227.03125 144.089844 226.664062 C 141.828125 226.332031 139.425781 226.140625 136.902344 226.140625 C 134.21875 226.140625 131.59375 226.402344 129.050781 226.925781 C 128.390625 227.066406 127.746094 227.222656 127.101562 227.398438 C 123.289062 228.375 119.617188 229.925781 116.167969 232.085938 C 105.445312 238.730469 98.273438 249.453125 94.863281 263.941406 C 93.730469 268.929688 93.140625 273.847656 93.140625 278.554688 C 93.140625 285.511719 94.425781 292.136719 96.953125 298.34375 C 97.195312 298.9375 97.4375 299.527344 97.699219 300.105469 C 97.960938 300.679688 98.222656 301.238281 98.5 301.796875 C 99.160156 303.121094 99.839844 304.429688 100.625 305.71875 C 102.363281 308.613281 104.332031 311.226562 106.527344 313.597656 C 107.046875 314.175781 107.605469 314.714844 108.160156 315.253906 C 108.753906 315.832031 109.34375 316.371094 109.972656 316.914062 C 119.460938 325.210938 132.359375 329.414062 148.53125 329.414062 C 159.808594 329.414062 169.976562 327.320312 178.730469 323.1875 C 187.488281 319.058594 194.746094 313.496094 200.28125 306.660156 C 205.871094 299.773438 210.8125 291.28125 214.992188 281.414062 C 219.167969 271.507812 222.390625 261.257812 224.546875 250.933594 C 224.632812 250.535156 224.703125 250.097656 224.792969 249.699219 C 225 248.703125 225.191406 247.675781 225.402344 246.664062 C 225.609375 245.652344 225.820312 244.660156 226.011719 243.628906 C 227.613281 235.277344 229.109375 226.402344 230.449219 217.109375 C 231.25 211.566406 232.050781 205.304688 232.832031 198.402344 C 232.972656 197.25 233.09375 196.101562 233.234375 194.914062 C 233.355469 193.765625 233.496094 192.59375 233.617188 191.410156 C 234.277344 185.253906 234.941406 178.664062 235.582031 171.621094 C 237.253906 153.417969 239.882812 137.65625 243.398438 124.734375 C 243.523438 124.265625 243.886719 123.898438 244.355469 123.777344 C 256.664062 120.289062 266.046875 117.132812 272.226562 114.398438 C 276.628906 112.546875 280.113281 110.613281 282.550781 108.660156 C 284.96875 106.726562 287.074219 104.300781 288.816406 101.441406 C 290.503906 98.667969 291.355469 95.707031 291.355469 92.621094 C 291.355469 89.585938 290.609375 87.109375 289.128906 85.242188 C 287.789062 83.554688 286.066406 82.679688 283.925781 82.679688 Z M 283.925781 82.679688 " fill-opacity="1" fill-rule="nonzero"/></g><g clip-path="url(#7c2cc2e097)"><path fill="#765c4a" d="M 258.796875 81.398438 C 258.699219 81.242188 258.613281 81.113281 258.519531 80.984375 L 258.371094 80.792969 L 258.292969 80.699219 L 258.21875 80.613281 C 258.039062 80.402344 257.835938 80.1875 257.65625 80.027344 C 256.90625 79.335938 256.226562 78.902344 255.554688 78.507812 C 255.042969 78.210938 254.539062 77.957031 254.039062 77.722656 C 254.550781 77.082031 254.957031 76.339844 255.234375 75.519531 C 255.285156 75.382812 255.320312 75.234375 255.363281 75.09375 C 255.394531 74.957031 255.4375 74.808594 255.46875 74.660156 C 255.511719 74.371094 255.574219 74.074219 255.597656 73.777344 C 255.660156 73.179688 255.640625 72.597656 255.597656 72 C 255.320312 69.640625 254.230469 67.417969 252.535156 65.695312 C 250.859375 63.960938 248.714844 62.824219 246.539062 62.121094 C 245.441406 61.773438 244.332031 61.527344 243.214844 61.378906 C 242.710938 61.304688 242.230469 61.273438 241.742188 61.230469 C 241.902344 61.101562 242.0625 60.972656 242.222656 60.835938 C 242.9375 60.207031 243.574219 59.484375 244.121094 58.667969 C 244.664062 57.847656 245.101562 56.914062 245.390625 55.945312 C 245.527344 55.457031 245.632812 54.964844 245.707031 54.46875 C 245.785156 53.96875 245.804688 53.457031 245.804688 52.945312 C 245.792969 51.925781 245.625 50.882812 245.28125 49.882812 C 245.101562 49.382812 244.898438 48.894531 244.632812 48.425781 C 244.566406 48.308594 244.503906 48.195312 244.429688 48.078125 L 244.207031 47.738281 L 244.085938 47.566406 L 243.960938 47.40625 L 243.714844 47.085938 C 243.03125 46.257812 242.199219 45.589844 241.292969 45.066406 C 240.375 44.558594 239.382812 44.21875 238.339844 44.078125 C 237.292969 43.941406 236.238281 44.015625 235.222656 44.332031 C 234.234375 44.652344 233.367188 45.195312 232.6875 45.855469 C 232.003906 46.523438 231.503906 47.320312 231.214844 48.171875 C 230.9375 49.023438 230.882812 49.917969 231.117188 50.703125 C 231.554688 50.011719 232.066406 49.5 232.609375 49.117188 C 233.164062 48.746094 233.742188 48.492188 234.308594 48.351562 C 234.871094 48.214844 235.417969 48.195312 235.886719 48.257812 C 236.34375 48.34375 236.792969 48.492188 237.199219 48.703125 C 237.601562 48.925781 237.976562 49.191406 238.296875 49.511719 C 238.617188 49.832031 238.894531 50.183594 239.097656 50.542969 C 239.140625 50.640625 239.191406 50.722656 239.234375 50.808594 L 239.296875 50.949219 C 239.320312 50.988281 239.332031 51.042969 239.351562 51.097656 C 239.425781 51.289062 239.492188 51.488281 239.542969 51.691406 C 239.585938 51.90625 239.640625 52.117188 239.660156 52.339844 C 239.695312 52.5625 239.703125 52.785156 239.703125 53.019531 C 239.703125 53.253906 239.703125 53.476562 239.671875 53.710938 C 239.652344 53.945312 239.609375 54.179688 239.566406 54.414062 C 239.46875 54.871094 239.320312 55.316406 239.117188 55.785156 C 238.902344 56.242188 238.648438 56.699219 238.328125 57.144531 C 238.007812 57.59375 237.636719 58.027344 237.21875 58.453125 C 236.792969 58.867188 236.34375 59.261719 235.820312 59.644531 C 235.308594 60.015625 234.746094 60.367188 234.136719 60.707031 C 233.527344 61.039062 232.886719 61.347656 232.207031 61.644531 C 231.523438 61.929688 230.796875 62.195312 230.039062 62.496094 C 230.050781 62.496094 230.050781 62.503906 230.0625 62.503906 C 227.148438 63.21875 224.367188 64.070312 221.667969 64.757812 C 221.199219 64.875 220.738281 64.992188 220.28125 65.101562 L 218.90625 65.410156 C 218.007812 65.601562 217.113281 65.75 216.207031 65.867188 C 214.414062 66.089844 212.613281 66.164062 210.917969 66.003906 C 210.074219 65.917969 209.242188 65.792969 208.484375 65.566406 C 207.71875 65.355469 207.003906 65.078125 206.375 64.707031 C 205.09375 63.992188 204.132812 62.941406 203.492188 61.539062 L 203.375 61.273438 C 203.34375 61.175781 203.3125 61.089844 203.269531 60.996094 L 203.164062 60.71875 C 203.128906 60.625 203.109375 60.539062 203.078125 60.441406 L 202.992188 60.167969 C 202.972656 60.070312 202.949219 59.976562 202.929688 59.878906 L 202.863281 59.59375 L 202.820312 59.304688 C 202.703125 58.527344 202.695312 57.710938 202.777344 56.878906 C 202.972656 55.234375 203.578125 53.574219 204.570312 52.136719 C 205.5625 50.703125 206.980469 49.46875 208.625 48.554688 C 210.277344 47.640625 212.175781 47.035156 214.179688 46.789062 C 212.195312 46.363281 210.054688 46.429688 207.996094 46.992188 C 205.9375 47.546875 203.941406 48.617188 202.308594 50.203125 C 201.5 50.988281 200.796875 51.90625 200.207031 52.894531 C 199.621094 53.882812 199.171875 54.957031 198.863281 56.082031 C 198.554688 57.210938 198.394531 58.402344 198.40625 59.613281 L 198.417969 60.070312 L 198.460938 60.527344 C 198.46875 60.675781 198.480469 60.835938 198.5 60.984375 L 198.578125 61.441406 C 198.597656 61.589844 198.617188 61.75 198.660156 61.898438 L 198.769531 62.335938 C 198.800781 62.484375 198.832031 62.632812 198.875 62.769531 L 199.015625 63.207031 C 199.375 64.375 199.953125 65.523438 200.710938 66.566406 C 201.46875 67.609375 202.425781 68.511719 203.472656 69.226562 C 203.761719 69.417969 204.046875 69.597656 204.335938 69.769531 C 198.746094 69.511719 193.160156 69.394531 187.578125 69.386719 C 182 69.386719 176.414062 69.503906 170.835938 69.757812 C 171.121094 69.585938 171.410156 69.417969 171.6875 69.226562 C 172.734375 68.511719 173.691406 67.609375 174.449219 66.566406 C 175.207031 65.523438 175.785156 64.375 176.144531 63.207031 L 176.285156 62.769531 C 176.328125 62.621094 176.359375 62.472656 176.390625 62.335938 L 176.5 61.898438 C 176.53125 61.75 176.550781 61.601562 176.582031 61.441406 L 176.65625 60.984375 C 176.679688 60.835938 176.691406 60.675781 176.699219 60.527344 L 176.742188 60.070312 L 176.753906 59.613281 C 176.765625 58.402344 176.617188 57.222656 176.296875 56.082031 C 175.984375 54.957031 175.539062 53.882812 174.953125 52.894531 C 174.363281 51.90625 173.660156 51 172.851562 50.203125 C 171.21875 48.617188 169.234375 47.554688 167.164062 46.992188 C 165.105469 46.429688 162.964844 46.355469 160.980469 46.789062 C 162.996094 47.035156 164.882812 47.640625 166.535156 48.554688 C 168.1875 49.46875 169.597656 50.703125 170.589844 52.136719 C 171.59375 53.5625 172.199219 55.234375 172.382812 56.878906 C 172.464844 57.699219 172.457031 58.519531 172.339844 59.304688 L 172.296875 59.59375 L 172.230469 59.878906 C 172.210938 59.976562 172.1875 60.070312 172.167969 60.167969 L 172.082031 60.441406 C 172.050781 60.539062 172.027344 60.625 171.996094 60.71875 L 171.890625 60.996094 C 171.859375 61.089844 171.828125 61.1875 171.785156 61.273438 L 171.667969 61.539062 C 171.015625 62.953125 170.066406 64.003906 168.785156 64.707031 C 168.148438 65.066406 167.433594 65.34375 166.675781 65.566406 C 165.90625 65.78125 165.085938 65.917969 164.242188 66.003906 C 162.546875 66.164062 160.746094 66.089844 158.953125 65.867188 C 158.058594 65.75 157.148438 65.609375 156.253906 65.410156 L 154.878906 65.101562 C 154.417969 64.984375 153.949219 64.875 153.492188 64.757812 C 150.792969 64.070312 148.007812 63.21875 145.097656 62.503906 C 145.109375 62.503906 145.109375 62.496094 145.117188 62.496094 C 144.363281 62.195312 143.636719 61.929688 142.953125 61.644531 C 142.269531 61.347656 141.621094 61.039062 141.023438 60.707031 C 140.414062 60.378906 139.859375 60.027344 139.339844 59.644531 C 138.828125 59.261719 138.367188 58.867188 137.941406 58.453125 C 137.523438 58.027344 137.152344 57.59375 136.832031 57.144531 C 136.511719 56.699219 136.253906 56.242188 136.042969 55.785156 C 135.839844 55.316406 135.691406 54.882812 135.59375 54.414062 C 135.550781 54.179688 135.507812 53.945312 135.488281 53.710938 C 135.457031 53.476562 135.457031 53.246094 135.457031 53.019531 C 135.457031 52.796875 135.464844 52.5625 135.5 52.339844 C 135.519531 52.117188 135.574219 51.90625 135.617188 51.691406 C 135.667969 51.488281 135.734375 51.289062 135.808594 51.097656 C 135.828125 51.054688 135.839844 51 135.859375 50.949219 L 135.925781 50.808594 C 135.957031 50.714844 136.019531 50.628906 136.0625 50.542969 C 136.265625 50.191406 136.542969 49.832031 136.863281 49.511719 C 137.183594 49.191406 137.566406 48.925781 137.960938 48.703125 C 138.367188 48.492188 138.816406 48.34375 139.273438 48.257812 C 139.742188 48.183594 140.289062 48.214844 140.851562 48.351562 C 141.417969 48.492188 141.992188 48.746094 142.546875 49.117188 C 143.09375 49.5 143.605469 50.011719 144.042969 50.703125 C 144.277344 49.925781 144.222656 49.023438 143.945312 48.171875 C 143.65625 47.332031 143.15625 46.523438 142.472656 45.855469 C 141.792969 45.195312 140.925781 44.652344 139.933594 44.332031 C 138.933594 44.027344 137.867188 43.941406 136.820312 44.078125 C 135.785156 44.21875 134.785156 44.566406 133.867188 45.066406 C 132.960938 45.589844 132.128906 46.257812 131.445312 47.085938 L 131.199219 47.40625 L 131.070312 47.566406 L 130.953125 47.738281 L 130.730469 48.078125 C 130.65625 48.195312 130.59375 48.308594 130.527344 48.425781 C 130.261719 48.894531 130.058594 49.382812 129.878906 49.882812 C 129.535156 50.882812 129.367188 51.914062 129.355469 52.945312 C 129.355469 53.457031 129.386719 53.96875 129.449219 54.46875 C 129.527344 54.964844 129.632812 55.464844 129.769531 55.945312 C 130.058594 56.914062 130.496094 57.847656 131.039062 58.667969 C 131.585938 59.484375 132.234375 60.21875 132.9375 60.835938 C 133.097656 60.972656 133.257812 61.101562 133.417969 61.230469 C 132.929688 61.273438 132.4375 61.304688 131.945312 61.378906 C 130.828125 61.539062 129.71875 61.78125 128.617188 62.121094 C 126.441406 62.824219 124.300781 63.960938 122.625 65.695312 C 120.929688 67.417969 119.839844 69.640625 119.5625 72 C 119.511719 72.597656 119.488281 73.191406 119.5625 73.777344 C 119.585938 74.074219 119.636719 74.359375 119.691406 74.660156 C 119.722656 74.808594 119.753906 74.945312 119.796875 75.09375 C 119.839844 75.234375 119.871094 75.382812 119.925781 75.519531 C 120.203125 76.328125 120.609375 77.074219 121.109375 77.710938 C 120.621094 77.945312 120.117188 78.199219 119.605469 78.496094 C 118.945312 78.890625 118.25 79.328125 117.503906 80.019531 C 117.324219 80.175781 117.121094 80.390625 116.941406 80.601562 L 116.863281 80.6875 L 116.789062 80.785156 L 116.640625 80.976562 C 116.546875 81.101562 116.460938 81.21875 116.363281 81.390625 C 116 81.953125 115.648438 82.804688 115.597656 83.75 C 115.585938 83.867188 115.585938 83.984375 115.585938 84.101562 C 115.585938 84.21875 115.597656 84.335938 115.605469 84.453125 C 115.628906 84.6875 115.671875 84.910156 115.722656 85.132812 L 115.765625 85.300781 L 115.820312 85.453125 C 115.851562 85.558594 115.894531 85.652344 115.925781 85.757812 C 116 85.960938 116.085938 86.121094 116.183594 86.300781 C 116.546875 86.972656 116.960938 87.417969 117.355469 87.789062 C 117.738281 88.152344 118.125 88.429688 118.488281 88.664062 C 118.667969 88.789062 118.839844 88.886719 119.019531 88.992188 C 119.191406 89.085938 119.371094 89.183594 119.542969 89.269531 C 120.226562 89.609375 120.886719 89.886719 121.527344 90.121094 C 122.816406 90.585938 124.074219 90.925781 125.324219 91.214844 C 127.820312 91.789062 130.273438 92.183594 132.726562 92.5 C 137.632812 93.105469 142.507812 93.414062 147.390625 93.542969 C 152.265625 93.671875 157.140625 93.628906 161.992188 93.382812 C 157.191406 92.574219 152.414062 91.789062 147.65625 90.917969 C 145.289062 90.46875 142.921875 90.023438 140.566406 89.523438 C 138.21875 89.035156 135.882812 88.511719 133.578125 87.929688 C 131.285156 87.34375 129.003906 86.714844 126.847656 85.949219 C 125.769531 85.566406 124.726562 85.152344 123.789062 84.695312 C 123.53125 84.570312 123.285156 84.441406 123.0625 84.3125 C 123.402344 84.164062 123.777344 84.027344 124.171875 83.886719 C 125.140625 83.546875 126.207031 83.261719 127.296875 82.996094 C 128.394531 82.738281 129.515625 82.507812 130.644531 82.292969 C 132.917969 81.878906 135.242188 81.539062 137.578125 81.242188 C 139.914062 80.941406 142.269531 80.699219 144.640625 80.484375 C 149.375 80.050781 154.132812 79.742188 158.898438 79.496094 C 168.445312 79.019531 178.023438 78.828125 187.601562 78.816406 C 197.179688 78.816406 206.769531 79.007812 216.304688 79.484375 C 221.070312 79.730469 225.839844 80.039062 230.5625 80.476562 C 232.929688 80.6875 235.289062 80.941406 237.625 81.230469 C 239.960938 81.515625 242.285156 81.855469 244.558594 82.28125 C 245.6875 82.496094 246.816406 82.730469 247.90625 82.984375 C 248.992188 83.25 250.0625 83.539062 251.042969 83.878906 C 251.445312 84.015625 251.820312 84.164062 252.171875 84.3125 C 251.9375 84.453125 251.683594 84.578125 251.414062 84.707031 C 250.464844 85.164062 249.421875 85.578125 248.34375 85.960938 C 246.1875 86.726562 243.90625 87.355469 241.613281 87.9375 C 239.308594 88.535156 236.972656 89.046875 234.628906 89.535156 C 232.28125 90.035156 229.914062 90.46875 227.535156 90.917969 C 222.789062 91.789062 218 92.566406 213.199219 93.371094 C 218.0625 93.617188 222.925781 93.648438 227.800781 93.523438 C 232.675781 93.394531 237.558594 93.085938 242.464844 92.46875 C 244.917969 92.148438 247.371094 91.757812 249.867188 91.183594 C 251.117188 90.894531 252.375 90.542969 253.664062 90.085938 C 254.316406 89.851562 254.96875 89.585938 255.648438 89.238281 C 255.820312 89.152344 255.992188 89.054688 256.171875 88.960938 C 256.351562 88.855469 256.523438 88.757812 256.707031 88.628906 C 257.066406 88.398438 257.441406 88.121094 257.824219 87.757812 C 258.210938 87.398438 258.625 86.949219 258.988281 86.28125 C 259.074219 86.101562 259.167969 85.941406 259.242188 85.738281 C 259.285156 85.644531 259.320312 85.535156 259.351562 85.441406 L 259.402344 85.292969 L 259.445312 85.121094 C 259.5 84.898438 259.542969 84.675781 259.5625 84.441406 C 259.574219 84.324219 259.585938 84.207031 259.585938 84.089844 C 259.585938 83.972656 259.574219 83.855469 259.574219 83.738281 C 259.511719 82.804688 259.160156 81.953125 258.796875 81.398438 Z M 121.792969 83.421875 C 121.8125 83.441406 121.824219 83.472656 121.835938 83.496094 C 121.78125 83.441406 121.738281 83.398438 121.71875 83.367188 C 121.6875 83.304688 121.707031 83.28125 121.792969 83.421875 Z M 150.953125 71.265625 C 148.511719 71.53125 146.066406 71.851562 143.636719 72.203125 C 138.75 72.914062 133.886719 73.765625 128.992188 75.042969 C 127.765625 75.359375 126.539062 75.710938 125.3125 76.105469 C 124.5 76.371094 123.691406 76.65625 122.878906 76.976562 C 122.539062 76.339844 122.335938 75.660156 122.273438 75 C 122.1875 74.179688 122.292969 73.351562 122.539062 72.574219 C 122.796875 71.796875 123.15625 71.054688 123.648438 70.394531 L 123.828125 70.152344 L 124.023438 69.917969 C 124.148438 69.757812 124.300781 69.617188 124.425781 69.460938 C 124.714844 69.171875 125.015625 68.90625 125.332031 68.671875 C 126.625 67.703125 128.214844 67.097656 129.878906 66.757812 C 130.71875 66.597656 131.585938 66.492188 132.457031 66.460938 C 132.894531 66.441406 133.34375 66.460938 133.792969 66.460938 C 134.238281 66.449219 134.6875 66.503906 135.136719 66.523438 C 136.925781 66.652344 138.742188 66.980469 140.566406 67.417969 C 144.222656 68.277344 147.957031 69.597656 151.988281 70.628906 C 152.488281 70.757812 153 70.875 153.503906 70.992188 C 152.636719 71.085938 151.796875 71.171875 150.953125 71.265625 Z M 238.863281 73.425781 C 236.417969 72.96875 233.988281 72.5625 231.542969 72.214844 C 229.101562 71.863281 226.671875 71.542969 224.226562 71.277344 C 223.375 71.183594 222.511719 71.085938 221.65625 71 C 221.667969 71 221.667969 71 221.679688 71 C 222.191406 70.875 222.703125 70.757812 223.203125 70.628906 C 227.234375 69.597656 230.96875 68.277344 234.628906 67.417969 C 236.460938 66.980469 238.265625 66.664062 240.054688 66.523438 C 240.503906 66.503906 240.953125 66.449219 241.398438 66.460938 C 241.847656 66.460938 242.296875 66.441406 242.734375 66.460938 C 243.609375 66.492188 244.472656 66.597656 245.3125 66.757812 C 246.988281 67.089844 248.566406 67.703125 249.859375 68.671875 C 250.179688 68.90625 250.476562 69.171875 250.765625 69.460938 C 250.902344 69.609375 251.050781 69.746094 251.167969 69.917969 L 251.363281 70.152344 L 251.542969 70.394531 C 252.035156 71.054688 252.394531 71.796875 252.652344 72.574219 C 252.898438 73.351562 252.992188 74.179688 252.917969 75 C 252.855469 75.667969 252.640625 76.347656 252.300781 77 C 251.480469 76.679688 250.667969 76.390625 249.867188 76.125 C 248.632812 75.722656 247.40625 75.382812 246.1875 75.0625 C 243.734375 74.414062 241.304688 73.894531 238.863281 73.425781 Z M 253.464844 83.378906 C 253.441406 83.410156 253.398438 83.453125 253.347656 83.503906 C 253.355469 83.472656 253.367188 83.453125 253.386719 83.429688 C 253.472656 83.292969 253.503906 83.3125 253.464844 83.378906 Z M 253.464844 83.378906 " fill-opacity="1" fill-rule="nonzero"/></g><path fill="#765c4a" d="M 153.671875 52.894531 C 154.015625 53.660156 154.453125 54.382812 154.984375 55.03125 C 155.527344 55.667969 156.136719 56.222656 156.820312 56.667969 C 157.503906 57.105469 158.238281 57.453125 159.015625 57.65625 C 159.796875 57.859375 160.59375 57.945312 161.375 57.847656 C 162.152344 57.773438 162.886719 57.527344 163.527344 57.167969 C 164.167969 56.804688 164.722656 56.316406 165.105469 55.742188 C 163.890625 56.382812 162.570312 56.457031 161.460938 56.167969 C 160.90625 56.019531 160.394531 55.785156 159.933594 55.476562 C 159.476562 55.167969 159.070312 54.808594 158.730469 54.390625 C 158.386719 53.976562 158.097656 53.53125 157.898438 53.074219 C 157.695312 52.605469 157.542969 52.128906 157.449219 51.636719 C 157.351562 51.148438 157.34375 50.640625 157.363281 50.160156 C 157.386719 49.671875 157.46875 49.191406 157.609375 48.746094 C 157.746094 48.300781 157.929688 47.875 158.152344 47.503906 C 158.214844 47.417969 158.28125 47.320312 158.335938 47.238281 C 158.386719 47.152344 158.460938 47.066406 158.527344 46.980469 C 158.578125 46.894531 158.664062 46.8125 158.738281 46.726562 C 158.8125 46.640625 158.898438 46.554688 158.972656 46.480469 C 159.613281 45.84375 160.382812 45.375 161.257812 45.058594 C 162.996094 44.429688 165.160156 44.441406 167.089844 45.023438 C 167.570312 45.171875 168.050781 45.34375 168.488281 45.566406 C 168.9375 45.78125 169.40625 46.035156 169.84375 46.332031 C 169.960938 46.40625 170.066406 46.472656 170.171875 46.554688 C 170.28125 46.628906 170.398438 46.703125 170.503906 46.789062 C 170.71875 46.960938 170.929688 47.121094 171.132812 47.300781 C 171.347656 47.46875 171.550781 47.660156 171.75 47.84375 C 171.945312 48.035156 172.15625 48.226562 172.339844 48.425781 C 173.117188 49.234375 173.832031 50.140625 174.472656 51.105469 L 174.707031 51.480469 L 174.941406 51.851562 C 175.027344 51.980469 175.078125 52.085938 175.144531 52.203125 C 175.207031 52.308594 175.273438 52.4375 175.335938 52.554688 C 175.589844 53.042969 175.824219 53.585938 176.070312 54.160156 C 176.539062 55.308594 176.976562 56.5625 177.488281 57.835938 C 177.746094 58.476562 178.011719 59.125 178.3125 59.761719 C 178.621094 60.398438 178.941406 61.046875 179.3125 61.675781 C 179.6875 62.304688 180.113281 62.921875 180.605469 63.496094 C 181.09375 64.058594 181.640625 64.589844 182.257812 65.027344 C 182.417969 65.132812 182.566406 65.238281 182.726562 65.332031 C 182.886719 65.429688 183.058594 65.515625 183.21875 65.601562 L 183.730469 65.824219 C 183.898438 65.898438 184.082031 65.941406 184.253906 66.003906 C 184.957031 66.207031 185.660156 66.289062 186.34375 66.257812 C 185.105469 65.640625 184.101562 64.824219 183.441406 63.824219 C 183.109375 63.324219 182.832031 62.792969 182.609375 62.238281 C 182.386719 61.6875 182.195312 61.113281 182.054688 60.515625 C 181.746094 59.328125 181.554688 58.082031 181.351562 56.796875 C 181.148438 55.507812 180.957031 54.167969 180.65625 52.777344 C 180.507812 52.074219 180.316406 51.363281 180.058594 50.617188 C 179.996094 50.425781 179.933594 50.246094 179.859375 50.054688 C 179.78125 49.875 179.707031 49.660156 179.632812 49.5 L 179.410156 48.992188 C 179.335938 48.820312 179.25 48.652344 179.164062 48.480469 C 178.824219 47.8125 178.460938 47.140625 178.042969 46.503906 C 177.84375 46.183594 177.617188 45.863281 177.40625 45.554688 C 177.171875 45.25 176.945312 44.941406 176.699219 44.640625 C 176.222656 44.035156 175.675781 43.472656 175.113281 42.917969 C 174.546875 42.378906 173.917969 41.867188 173.265625 41.398438 C 172.617188 40.929688 171.921875 40.515625 171.175781 40.132812 C 170.417969 39.761719 169.640625 39.453125 168.851562 39.21875 C 168.050781 38.984375 167.25 38.816406 166.429688 38.707031 C 165.609375 38.613281 164.777344 38.570312 163.945312 38.613281 C 162.28125 38.6875 160.585938 39.050781 159.007812 39.78125 C 157.417969 40.507812 155.964844 41.644531 154.890625 43.046875 C 154.75 43.21875 154.621094 43.398438 154.503906 43.578125 C 154.386719 43.757812 154.257812 43.941406 154.152344 44.140625 C 154.046875 44.34375 153.917969 44.535156 153.824219 44.75 C 153.726562 44.949219 153.628906 45.164062 153.546875 45.363281 C 153.214844 46.207031 153.011719 47.066406 152.914062 47.925781 C 152.808594 48.789062 152.851562 49.648438 152.96875 50.492188 C 153.109375 51.308594 153.320312 52.128906 153.671875 52.894531 Z M 153.671875 52.894531 " fill-opacity="1" fill-rule="nonzero"/><path fill="#765c4a" d="M 196.007812 48.460938 C 195.921875 48.628906 195.835938 48.800781 195.761719 48.96875 L 195.535156 49.480469 C 195.460938 49.640625 195.386719 49.851562 195.3125 50.03125 C 195.238281 50.222656 195.175781 50.40625 195.109375 50.597656 C 194.855469 51.339844 194.671875 52.054688 194.511719 52.753906 C 194.203125 54.148438 194.011719 55.488281 193.820312 56.773438 C 193.617188 58.0625 193.425781 59.316406 193.117188 60.496094 C 192.964844 61.089844 192.785156 61.664062 192.5625 62.21875 C 192.335938 62.769531 192.058594 63.304688 191.730469 63.800781 C 191.066406 64.8125 190.066406 65.632812 188.828125 66.238281 C 189.511719 66.269531 190.226562 66.183594 190.917969 65.984375 C 191.089844 65.929688 191.269531 65.875 191.441406 65.800781 L 191.953125 65.578125 C 192.113281 65.492188 192.285156 65.410156 192.445312 65.3125 C 192.605469 65.21875 192.753906 65.109375 192.914062 65.003906 C 193.53125 64.578125 194.074219 64.035156 194.566406 63.472656 C 195.058594 62.898438 195.472656 62.28125 195.855469 61.65625 C 196.230469 61.027344 196.550781 60.378906 196.859375 59.742188 C 197.15625 59.09375 197.425781 58.453125 197.679688 57.816406 C 198.191406 56.539062 198.628906 55.285156 199.097656 54.136719 C 199.332031 53.5625 199.578125 53.019531 199.835938 52.53125 C 199.898438 52.414062 199.964844 52.289062 200.027344 52.179688 C 200.089844 52.0625 200.144531 51.96875 200.230469 51.828125 L 200.699219 51.085938 C 201.339844 50.109375 202.054688 49.203125 202.832031 48.40625 C 203.023438 48.203125 203.226562 48.011719 203.417969 47.820312 C 203.621094 47.640625 203.824219 47.449219 204.039062 47.277344 C 204.238281 47.097656 204.464844 46.9375 204.667969 46.769531 C 204.773438 46.683594 204.878906 46.609375 204.996094 46.535156 C 205.105469 46.460938 205.210938 46.386719 205.328125 46.3125 C 205.765625 46.015625 206.234375 45.757812 206.683594 45.546875 C 207.128906 45.332031 207.601562 45.152344 208.078125 45.003906 C 210.019531 44.417969 212.175781 44.410156 213.914062 45.035156 C 214.789062 45.355469 215.554688 45.824219 216.195312 46.460938 C 216.269531 46.546875 216.355469 46.621094 216.429688 46.703125 C 216.503906 46.789062 216.589844 46.875 216.644531 46.960938 C 216.707031 47.046875 216.78125 47.121094 216.835938 47.214844 C 216.890625 47.3125 216.953125 47.394531 217.019531 47.480469 C 217.242188 47.851562 217.421875 48.277344 217.5625 48.726562 C 217.699219 49.171875 217.785156 49.648438 217.808594 50.140625 C 217.839844 50.628906 217.816406 51.128906 217.722656 51.617188 C 217.625 52.105469 217.488281 52.59375 217.273438 53.054688 C 217.070312 53.511719 216.78125 53.96875 216.441406 54.371094 C 216.101562 54.785156 215.695312 55.148438 215.238281 55.457031 C 214.777344 55.765625 214.265625 56 213.710938 56.148438 C 212.589844 56.433594 211.28125 56.359375 210.0625 55.722656 C 210.4375 56.296875 210.992188 56.785156 211.640625 57.148438 C 212.292969 57.496094 213.019531 57.742188 213.796875 57.828125 C 214.574219 57.921875 215.386719 57.835938 216.152344 57.636719 C 216.933594 57.433594 217.667969 57.082031 218.351562 56.648438 C 219.035156 56.199219 219.640625 55.65625 220.183594 55.007812 C 220.71875 54.371094 221.15625 53.648438 221.496094 52.871094 C 221.847656 52.105469 222.0625 51.289062 222.191406 50.449219 C 222.320312 49.609375 222.351562 48.746094 222.242188 47.886719 C 222.148438 47.023438 221.945312 46.164062 221.613281 45.324219 C 221.53125 45.121094 221.433594 44.90625 221.335938 44.707031 C 221.242188 44.503906 221.125 44.300781 221.007812 44.101562 C 220.898438 43.898438 220.773438 43.71875 220.65625 43.535156 C 220.539062 43.355469 220.398438 43.175781 220.269531 43.003906 C 219.195312 41.601562 217.742188 40.464844 216.152344 39.742188 C 214.566406 39.007812 212.878906 38.644531 211.214844 38.570312 C 210.382812 38.527344 209.550781 38.570312 208.730469 38.667969 C 207.910156 38.773438 207.097656 38.941406 206.308594 39.175781 C 205.519531 39.421875 204.742188 39.71875 203.984375 40.089844 C 203.25 40.472656 202.554688 40.878906 201.894531 41.355469 C 201.242188 41.824219 200.613281 42.324219 200.046875 42.878906 C 199.472656 43.417969 198.9375 43.992188 198.460938 44.601562 C 198.214844 44.898438 197.980469 45.207031 197.753906 45.515625 C 197.542969 45.832031 197.316406 46.140625 197.113281 46.460938 C 196.699219 47.121094 196.335938 47.789062 196.007812 48.460938 Z M 196.007812 48.460938 " fill-opacity="1" fill-rule="nonzero"/><g clip-path="url(#896ec00e3a)"><path fill="#765c4a" d="M 197.734375 40.304688 C 197.734375 41.011719 197.71875 41.714844 197.683594 42.417969 C 197.652344 43.121094 197.605469 43.816406 197.539062 44.511719 C 197.472656 45.203125 197.394531 45.886719 197.296875 46.5625 C 197.199219 47.238281 197.089844 47.902344 196.960938 48.554688 C 196.835938 49.207031 196.691406 49.847656 196.535156 50.46875 C 196.378906 51.089844 196.207031 51.695312 196.023438 52.285156 C 195.839844 52.871094 195.640625 53.4375 195.429688 53.984375 C 195.21875 54.53125 194.996094 55.050781 194.761719 55.550781 C 194.527344 56.050781 194.28125 56.523438 194.027344 56.972656 C 193.769531 57.421875 193.503906 57.839844 193.226562 58.234375 C 192.949219 58.625 192.664062 58.988281 192.371094 59.320312 C 192.078125 59.652344 191.777344 59.957031 191.472656 60.226562 C 191.164062 60.496094 190.851562 60.734375 190.535156 60.9375 C 190.21875 61.144531 189.894531 61.316406 189.570312 61.453125 C 189.242188 61.589844 188.914062 61.695312 188.585938 61.765625 C 188.253906 61.832031 187.921875 61.867188 187.589844 61.867188 C 187.257812 61.867188 186.925781 61.832031 186.597656 61.765625 C 186.265625 61.695312 185.9375 61.589844 185.613281 61.453125 C 185.285156 61.316406 184.964844 61.144531 184.644531 60.9375 C 184.328125 60.734375 184.015625 60.496094 183.707031 60.226562 C 183.402344 59.957031 183.101562 59.652344 182.808594 59.320312 C 182.515625 58.988281 182.230469 58.625 181.957031 58.234375 C 181.679688 57.839844 181.414062 57.421875 181.15625 56.972656 C 180.898438 56.523438 180.652344 56.050781 180.417969 55.550781 C 180.183594 55.050781 179.960938 54.53125 179.75 53.984375 C 179.539062 53.4375 179.339844 52.871094 179.15625 52.285156 C 178.972656 51.695312 178.800781 51.089844 178.644531 50.46875 C 178.488281 49.847656 178.347656 49.207031 178.21875 48.554688 C 178.09375 47.902344 177.980469 47.238281 177.882812 46.5625 C 177.789062 45.886719 177.707031 45.203125 177.640625 44.511719 C 177.578125 43.816406 177.527344 43.121094 177.496094 42.417969 C 177.464844 41.714844 177.449219 41.011719 177.449219 40.304688 C 177.449219 39.597656 177.464844 38.894531 177.496094 38.191406 C 177.527344 37.488281 177.578125 36.789062 177.640625 36.097656 C 177.707031 35.40625 177.789062 34.71875 177.882812 34.042969 C 177.980469 33.367188 178.09375 32.703125 178.21875 32.050781 C 178.347656 31.398438 178.488281 30.761719 178.644531 30.140625 C 178.800781 29.515625 178.972656 28.910156 179.15625 28.324219 C 179.339844 27.738281 179.539062 27.171875 179.75 26.625 C 179.960938 26.078125 180.183594 25.554688 180.417969 25.054688 C 180.652344 24.558594 180.898438 24.082031 181.15625 23.636719 C 181.414062 23.1875 181.679688 22.765625 181.957031 22.375 C 182.230469 21.980469 182.515625 21.621094 182.808594 21.285156 C 183.101562 20.953125 183.402344 20.652344 183.707031 20.382812 C 184.015625 20.113281 184.328125 19.875 184.644531 19.667969 C 184.964844 19.464844 185.285156 19.292969 185.613281 19.15625 C 185.9375 19.015625 186.265625 18.914062 186.597656 18.84375 C 186.925781 18.773438 187.257812 18.742188 187.589844 18.742188 C 187.921875 18.742188 188.253906 18.773438 188.585938 18.84375 C 188.914062 18.914062 189.242188 19.015625 189.570312 19.15625 C 189.894531 19.292969 190.21875 19.464844 190.535156 19.667969 C 190.851562 19.875 191.164062 20.113281 191.472656 20.382812 C 191.777344 20.652344 192.078125 20.953125 192.371094 21.285156 C 192.664062 21.621094 192.949219 21.980469 193.226562 22.375 C 193.503906 22.765625 193.769531 23.1875 194.027344 23.636719 C 194.28125 24.082031 194.527344 24.558594 194.761719 25.054688 C 194.996094 25.554688 195.21875 26.078125 195.429688 26.625 C 195.640625 27.171875 195.839844 27.738281 196.023438 28.324219 C 196.207031 28.910156 196.378906 29.515625 196.535156 30.140625 C 196.691406 30.761719 196.835938 31.398438 196.960938 32.050781 C 197.089844 32.703125 197.199219 33.367188 197.296875 34.042969 C 197.394531 34.71875 197.472656 35.40625 197.539062 36.097656 C 197.605469 36.789062 197.652344 37.488281 197.683594 38.191406 C 197.71875 38.894531 197.734375 39.597656 197.734375 40.304688 Z M 197.734375 40.304688 " fill-opacity="1" fill-rule="nonzero"/></g><path fill="#765c4a" d="M 148.777344 59.730469 C 150.644531 59.730469 152.167969 58.21875 152.167969 56.347656 C 152.167969 54.488281 150.65625 52.96875 148.777344 52.96875 C 146.898438 52.96875 145.386719 54.476562 145.386719 56.347656 C 145.386719 58.21875 146.898438 59.730469 148.777344 59.730469 Z M 148.777344 59.730469 " fill-opacity="1" fill-rule="nonzero"/><path fill="#765c4a" d="M 226.402344 59.730469 C 228.269531 59.730469 229.796875 58.21875 229.796875 56.347656 C 229.796875 54.488281 228.28125 52.96875 226.402344 52.96875 C 224.539062 52.96875 223.011719 54.476562 223.011719 56.347656 C 223.011719 58.21875 224.527344 59.730469 226.402344 59.730469 Z M 226.402344 59.730469 " fill-opacity="1" fill-rule="nonzero"/></svg>